<?xml version="1.0" encoding="UTF-8" standalone="no"?>
<!-- Created with Inkscape (http://www.inkscape.org/) -->

<svg
   xmlns:dc="http://purl.org/dc/elements/1.1/"
   xmlns:cc="http://creativecommons.org/ns#"
   xmlns:rdf="http://www.w3.org/1999/02/22-rdf-syntax-ns#"
   xmlns:svg="http://www.w3.org/2000/svg"
   xmlns="http://www.w3.org/2000/svg"
   version="1.1"
   width="1953.6146"
   height="646.47736"
   id="svg2">
  <defs
     id="defs4" />
  <metadata
     id="metadata7">
    <rdf:RDF>
      <cc:Work
         rdf:about="">
        <dc:format>image/svg+xml</dc:format>
        <dc:type
           rdf:resource="http://purl.org/dc/dcmitype/StillImage" />
        <dc:title></dc:title>
      </cc:Work>
    </rdf:RDF>
  </metadata>
  <rect
     width="2016.2645"
     height="751.55347"
     x="-17.182751"
     y="-21.223354"
     id="rect4285"
     style="fill:#ffffff;fill-opacity:1;stroke:#ff3a3a;stroke-width:8;stroke-linecap:butt;stroke-linejoin:miter;stroke-miterlimit:4;stroke-opacity:1;stroke-dasharray:none;stroke-dashoffset:0" />
  <g
     transform="translate(147.55112,11.318324)"
     id="g4221"
     style="stroke:#ff6b62;stroke-linecap:butt;stroke-linejoin:miter;stroke-opacity:1">
    <path
       d="m -148.57143,45.255464 1964.28573,0"
       id="path4101"
       style="fill:none;stroke:#ff6b62;stroke-width:4;stroke-linecap:butt;stroke-linejoin:miter;stroke-miterlimit:4;stroke-opacity:1;stroke-dasharray:none;stroke-dashoffset:0" />
    <path
       d="m -148.57143,1.5302275 1964.28573,0"
       id="path4103"
       style="fill:none;stroke:#ff6b62;stroke-width:8;stroke-linecap:butt;stroke-linejoin:miter;stroke-miterlimit:4;stroke-opacity:1;stroke-dasharray:none;stroke-dashoffset:0" />
    <path
       d="m -148.57143,88.980638 1964.28573,0"
       id="path4105"
       style="fill:none;stroke:#ff6b62;stroke-width:4;stroke-linecap:butt;stroke-linejoin:miter;stroke-miterlimit:4;stroke-opacity:1;stroke-dasharray:none;stroke-dashoffset:0" />
    <path
       d="m -148.57143,132.70582 1964.28573,0"
       id="path4107"
       style="fill:none;stroke:#ff6b62;stroke-width:4;stroke-linecap:butt;stroke-linejoin:miter;stroke-miterlimit:4;stroke-opacity:1;stroke-dasharray:none;stroke-dashoffset:0" />
    <path
       d="m -148.57143,176.43095 1964.28573,0"
       id="path4109"
       style="fill:none;stroke:#ff6b62;stroke-width:4;stroke-linecap:butt;stroke-linejoin:miter;stroke-miterlimit:4;stroke-opacity:1;stroke-dasharray:none;stroke-dashoffset:0" />
    <path
       d="m -148.57143,220.1561 1964.28573,0"
       id="path4111"
       style="fill:none;stroke:#ff6b62;stroke-width:8;stroke-linecap:butt;stroke-linejoin:miter;stroke-miterlimit:4;stroke-opacity:1;stroke-dasharray:none;stroke-dashoffset:0" />
    <path
       d="m -148.57143,263.88138 1964.28573,0"
       id="path4113"
       style="fill:none;stroke:#ff6b62;stroke-width:4;stroke-linecap:butt;stroke-linejoin:miter;stroke-miterlimit:4;stroke-opacity:1;stroke-dasharray:none;stroke-dashoffset:0" />
    <path
       d="m -148.57143,307.60647 1964.28573,0"
       id="path4115"
       style="fill:none;stroke:#ff6b62;stroke-width:4;stroke-linecap:butt;stroke-linejoin:miter;stroke-miterlimit:4;stroke-opacity:1;stroke-dasharray:none;stroke-dashoffset:0" />
    <path
       d="m -148.57143,351.33164 1964.28573,0"
       id="path4117"
       style="fill:none;stroke:#ff6b62;stroke-width:4;stroke-linecap:butt;stroke-linejoin:miter;stroke-miterlimit:4;stroke-opacity:1;stroke-dasharray:none;stroke-dashoffset:0" />
    <path
       d="m -148.57143,395.0568 1964.28573,0"
       id="path4119"
       style="fill:none;stroke:#ff6b62;stroke-width:4;stroke-linecap:butt;stroke-linejoin:miter;stroke-miterlimit:4;stroke-opacity:1;stroke-dasharray:none;stroke-dashoffset:0" />
    <path
       d="m -148.57143,438.78201 1964.28573,0"
       id="path4121"
       style="fill:none;stroke:#ff6b62;stroke-width:8;stroke-linecap:butt;stroke-linejoin:miter;stroke-miterlimit:4;stroke-opacity:1;stroke-dasharray:none;stroke-dashoffset:0" />
    <path
       d="m -148.57143,482.50718 1964.28573,0"
       id="path4123"
       style="fill:none;stroke:#ff6b62;stroke-width:4;stroke-linecap:butt;stroke-linejoin:miter;stroke-miterlimit:4;stroke-opacity:1;stroke-dasharray:none;stroke-dashoffset:0" />
    <path
       d="m -148.57143,526.23234 1964.28573,0"
       id="path4125"
       style="fill:none;stroke:#ff6b62;stroke-width:4;stroke-linecap:butt;stroke-linejoin:miter;stroke-miterlimit:4;stroke-opacity:1;stroke-dasharray:none;stroke-dashoffset:0" />
    <path
       d="m -148.57143,569.95753 1964.28573,0"
       id="path4127"
       style="fill:none;stroke:#ff6b62;stroke-width:4;stroke-linecap:butt;stroke-linejoin:miter;stroke-miterlimit:4;stroke-opacity:1;stroke-dasharray:none;stroke-dashoffset:0" />
    <path
       d="m -148.57143,613.68267 1964.28573,0"
       id="path4129"
       style="fill:none;stroke:#ff6b62;stroke-width:4;stroke-linecap:butt;stroke-linejoin:miter;stroke-miterlimit:4;stroke-opacity:1;stroke-dasharray:none;stroke-dashoffset:0" />
  </g>
  <g
     transform="translate(147.55112,11.318324)"
     id="g4238"
     style="stroke:#ff6b62;stroke-linecap:butt;stroke-linejoin:miter;stroke-opacity:1">
    <path
       d="m -137.5033,-18.399515 0,701.045865"
       id="path4131"
       style="fill:none;stroke:#ff6b62;stroke-width:8;stroke-linecap:butt;stroke-linejoin:miter;stroke-miterlimit:4;stroke-opacity:1;stroke-dasharray:none;stroke-dashoffset:0" />
    <path
       d="m -93.90694,-18.399515 0,701.045865"
       id="path4133"
       style="fill:none;stroke:#ff6b62;stroke-width:4;stroke-linecap:butt;stroke-linejoin:miter;stroke-miterlimit:4;stroke-opacity:1;stroke-dasharray:none;stroke-dashoffset:0" />
    <path
       d="m -50.310576,-18.399515 0,701.045865"
       id="path4135"
       style="fill:none;stroke:#ff6b62;stroke-width:4;stroke-linecap:butt;stroke-linejoin:miter;stroke-miterlimit:4;stroke-opacity:1;stroke-dasharray:none;stroke-dashoffset:0" />
    <path
       d="m -6.7142178,-18.399515 0,701.045865"
       id="path4137"
       style="fill:none;stroke:#ff6b62;stroke-width:4;stroke-linecap:butt;stroke-linejoin:miter;stroke-miterlimit:4;stroke-opacity:1;stroke-dasharray:none;stroke-dashoffset:0" />
    <path
       d="m 36.882142,-18.399515 0,701.045865"
       id="path4139"
       style="fill:none;stroke:#ff6b62;stroke-width:4;stroke-linecap:butt;stroke-linejoin:miter;stroke-miterlimit:4;stroke-opacity:1;stroke-dasharray:none;stroke-dashoffset:0" />
    <path
       d="m 80.4785,-18.399515 0,701.045865"
       id="path4141"
       style="fill:none;stroke:#ff6b62;stroke-width:8;stroke-linecap:butt;stroke-linejoin:miter;stroke-miterlimit:4;stroke-opacity:1;stroke-dasharray:none;stroke-dashoffset:0" />
    <path
       d="m 124.07486,-18.399515 0,701.045865"
       id="path4143"
       style="fill:none;stroke:#ff6b62;stroke-width:4;stroke-linecap:butt;stroke-linejoin:miter;stroke-miterlimit:4;stroke-opacity:1;stroke-dasharray:none;stroke-dashoffset:0" />
    <path
       d="m 167.6712,-18.399515 0,701.045865"
       id="path4145"
       style="fill:none;stroke:#ff6b62;stroke-width:4;stroke-linecap:butt;stroke-linejoin:miter;stroke-miterlimit:4;stroke-opacity:1;stroke-dasharray:none;stroke-dashoffset:0" />
    <path
       d="m 211.26757,-18.399515 0,701.045865"
       id="path4147"
       style="fill:none;stroke:#ff6b62;stroke-width:4;stroke-linecap:butt;stroke-linejoin:miter;stroke-miterlimit:4;stroke-opacity:1;stroke-dasharray:none;stroke-dashoffset:0" />
    <path
       d="m 254.86395,-18.399515 0,701.045865"
       id="path4149"
       style="fill:none;stroke:#ff6b62;stroke-width:4;stroke-linecap:butt;stroke-linejoin:miter;stroke-miterlimit:4;stroke-opacity:1;stroke-dasharray:none;stroke-dashoffset:0" />
    <path
       d="m 298.46029,-18.399515 0,701.045865"
       id="path4151"
       style="fill:none;stroke:#ff6b62;stroke-width:8;stroke-linecap:butt;stroke-linejoin:miter;stroke-miterlimit:4;stroke-opacity:1;stroke-dasharray:none;stroke-dashoffset:0" />
    <path
       d="m 342.05663,-18.399515 0,701.045865"
       id="path4153"
       style="fill:none;stroke:#ff6b62;stroke-width:4;stroke-linecap:butt;stroke-linejoin:miter;stroke-miterlimit:4;stroke-opacity:1;stroke-dasharray:none;stroke-dashoffset:0" />
    <path
       d="m 385.65301,-18.399515 0,701.045865"
       id="path4155"
       style="fill:none;stroke:#ff6b62;stroke-width:4;stroke-linecap:butt;stroke-linejoin:miter;stroke-miterlimit:4;stroke-opacity:1;stroke-dasharray:none;stroke-dashoffset:0" />
    <path
       d="m 429.24939,-18.399515 0,701.045865"
       id="path4157"
       style="fill:none;stroke:#ff6b62;stroke-width:4;stroke-linecap:butt;stroke-linejoin:miter;stroke-miterlimit:4;stroke-opacity:1;stroke-dasharray:none;stroke-dashoffset:0" />
    <path
       d="m 472.8457,-18.399515 0,701.045865"
       id="path4159"
       style="fill:none;stroke:#ff6b62;stroke-width:4;stroke-linecap:butt;stroke-linejoin:miter;stroke-miterlimit:4;stroke-opacity:1;stroke-dasharray:none;stroke-dashoffset:0" />
    <path
       d="m 516.44208,-18.399515 0,701.045865"
       id="path4161"
       style="fill:none;stroke:#ff6b62;stroke-width:8;stroke-linecap:butt;stroke-linejoin:miter;stroke-miterlimit:4;stroke-opacity:1;stroke-dasharray:none;stroke-dashoffset:0" />
    <path
       d="m 560.03844,-18.399515 0,701.045865"
       id="path4163"
       style="fill:none;stroke:#ff6b62;stroke-width:4;stroke-linecap:butt;stroke-linejoin:miter;stroke-miterlimit:4;stroke-opacity:1;stroke-dasharray:none;stroke-dashoffset:0" />
    <path
       d="m 603.63485,-18.399515 0,701.045865"
       id="path4165"
       style="fill:none;stroke:#ff6b62;stroke-width:4;stroke-linecap:butt;stroke-linejoin:miter;stroke-miterlimit:4;stroke-opacity:1;stroke-dasharray:none;stroke-dashoffset:0" />
    <path
       d="m 647.23117,-18.399515 0,701.045865"
       id="path4167"
       style="fill:none;stroke:#ff6b62;stroke-width:4;stroke-linecap:butt;stroke-linejoin:miter;stroke-miterlimit:4;stroke-opacity:1;stroke-dasharray:none;stroke-dashoffset:0" />
    <path
       d="m 690.82749,-18.399515 0,701.045865"
       id="path4169"
       style="fill:none;stroke:#ff6b62;stroke-width:4;stroke-linecap:butt;stroke-linejoin:miter;stroke-miterlimit:4;stroke-opacity:1;stroke-dasharray:none;stroke-dashoffset:0" />
    <path
       d="m 734.42387,-18.399515 0,701.045865"
       id="path4171"
       style="fill:none;stroke:#ff6b62;stroke-width:8;stroke-linecap:butt;stroke-linejoin:miter;stroke-miterlimit:4;stroke-opacity:1;stroke-dasharray:none;stroke-dashoffset:0" />
    <path
       d="m 778.02024,-18.399515 0,701.045865"
       id="path4173"
       style="fill:none;stroke:#ff6b62;stroke-width:4;stroke-linecap:butt;stroke-linejoin:miter;stroke-miterlimit:4;stroke-opacity:1;stroke-dasharray:none;stroke-dashoffset:0" />
    <path
       d="m 821.61656,-18.399515 0,701.045865"
       id="path4175"
       style="fill:none;stroke:#ff6b62;stroke-width:4;stroke-linecap:butt;stroke-linejoin:miter;stroke-miterlimit:4;stroke-opacity:1;stroke-dasharray:none;stroke-dashoffset:0" />
    <path
       d="m 865.21296,-18.399515 0,701.045865"
       id="path4177"
       style="fill:none;stroke:#ff6b62;stroke-width:4;stroke-linecap:butt;stroke-linejoin:miter;stroke-miterlimit:4;stroke-opacity:1;stroke-dasharray:none;stroke-dashoffset:0" />
    <path
       d="m 908.80933,-18.399515 0,701.045865"
       id="path4179"
       style="fill:none;stroke:#ff6b62;stroke-width:4;stroke-linecap:butt;stroke-linejoin:miter;stroke-miterlimit:4;stroke-opacity:1;stroke-dasharray:none;stroke-dashoffset:0" />
    <path
       d="m 952.40564,-18.399515 0,701.045865"
       id="path4181"
       style="fill:none;stroke:#ff6b62;stroke-width:8;stroke-linecap:butt;stroke-linejoin:miter;stroke-miterlimit:4;stroke-opacity:1;stroke-dasharray:none;stroke-dashoffset:0" />
    <path
       d="m 996.00207,-18.399515 0,701.045865"
       id="path4183"
       style="fill:none;stroke:#ff6b62;stroke-width:4;stroke-linecap:butt;stroke-linejoin:miter;stroke-miterlimit:4;stroke-opacity:1;stroke-dasharray:none;stroke-dashoffset:0" />
    <path
       d="m 1039.5984,-18.399515 0,701.045865"
       id="path4185"
       style="fill:none;stroke:#ff6b62;stroke-width:4;stroke-linecap:butt;stroke-linejoin:miter;stroke-miterlimit:4;stroke-opacity:1;stroke-dasharray:none;stroke-dashoffset:0" />
    <path
       d="m 1083.1948,-18.399515 0,701.045865"
       id="path4187"
       style="fill:none;stroke:#ff6b62;stroke-width:4;stroke-linecap:butt;stroke-linejoin:miter;stroke-miterlimit:4;stroke-opacity:1;stroke-dasharray:none;stroke-dashoffset:0" />
    <path
       d="m 1126.7911,-18.399515 0,701.045865"
       id="path4189"
       style="fill:none;stroke:#ff6b62;stroke-width:4;stroke-linecap:butt;stroke-linejoin:miter;stroke-miterlimit:4;stroke-opacity:1;stroke-dasharray:none;stroke-dashoffset:0" />
    <path
       d="m 1170.3874,-18.399515 0,701.045865"
       id="path4191"
       style="fill:none;stroke:#ff6b62;stroke-width:8;stroke-linecap:butt;stroke-linejoin:miter;stroke-miterlimit:4;stroke-opacity:1;stroke-dasharray:none;stroke-dashoffset:0" />
    <path
       d="m 1213.9839,-18.399515 0,701.045865"
       id="path4193"
       style="fill:none;stroke:#ff6b62;stroke-width:4;stroke-linecap:butt;stroke-linejoin:miter;stroke-miterlimit:4;stroke-opacity:1;stroke-dasharray:none;stroke-dashoffset:0" />
    <path
       d="m 1257.5802,-18.399515 0,701.045865"
       id="path4195"
       style="fill:none;stroke:#ff6b62;stroke-width:4;stroke-linecap:butt;stroke-linejoin:miter;stroke-miterlimit:4;stroke-opacity:1;stroke-dasharray:none;stroke-dashoffset:0" />
    <path
       d="m 1301.1765,-18.399515 0,701.045865"
       id="path4197"
       style="fill:none;stroke:#ff6b62;stroke-width:4;stroke-linecap:butt;stroke-linejoin:miter;stroke-miterlimit:4;stroke-opacity:1;stroke-dasharray:none;stroke-dashoffset:0" />
    <path
       d="m 1344.7729,-18.399515 0,701.045865"
       id="path4199"
       style="fill:none;stroke:#ff6b62;stroke-width:4;stroke-linecap:butt;stroke-linejoin:miter;stroke-miterlimit:4;stroke-opacity:1;stroke-dasharray:none;stroke-dashoffset:0" />
    <path
       d="m 1388.3693,-18.399515 0,701.045865"
       id="path4201"
       style="fill:none;stroke:#ff6b62;stroke-width:8;stroke-linecap:butt;stroke-linejoin:miter;stroke-miterlimit:4;stroke-opacity:1;stroke-dasharray:none;stroke-dashoffset:0" />
    <path
       d="m 1431.9657,-18.399515 0,701.045865"
       id="path4203"
       style="fill:none;stroke:#ff6b62;stroke-width:4;stroke-linecap:butt;stroke-linejoin:miter;stroke-miterlimit:4;stroke-opacity:1;stroke-dasharray:none;stroke-dashoffset:0" />
    <path
       d="m 1475.562,-18.399515 0,701.045865"
       id="path4205"
       style="fill:none;stroke:#ff6b62;stroke-width:4;stroke-linecap:butt;stroke-linejoin:miter;stroke-miterlimit:4;stroke-opacity:1;stroke-dasharray:none;stroke-dashoffset:0" />
    <path
       d="m 1519.1584,-18.399515 0,701.045865"
       id="path4207"
       style="fill:none;stroke:#ff6b62;stroke-width:4;stroke-linecap:butt;stroke-linejoin:miter;stroke-miterlimit:4;stroke-opacity:1;stroke-dasharray:none;stroke-dashoffset:0" />
    <path
       d="m 1562.7548,-18.399515 0,701.045865"
       id="path4209"
       style="fill:none;stroke:#ff6b62;stroke-width:4;stroke-linecap:butt;stroke-linejoin:miter;stroke-miterlimit:4;stroke-opacity:1;stroke-dasharray:none;stroke-dashoffset:0" />
    <path
       d="m 1606.3511,-18.399515 0,701.045865"
       id="path4211"
       style="fill:none;stroke:#ff6b62;stroke-width:8;stroke-linecap:butt;stroke-linejoin:miter;stroke-miterlimit:4;stroke-opacity:1;stroke-dasharray:none;stroke-dashoffset:0" />
    <path
       d="m 1649.9474,-18.399515 0,701.045865"
       id="path4213"
       style="fill:none;stroke:#ff6b62;stroke-width:4;stroke-linecap:butt;stroke-linejoin:miter;stroke-miterlimit:4;stroke-opacity:1;stroke-dasharray:none;stroke-dashoffset:0" />
    <path
       d="m 1693.5438,-18.399515 0,701.045865"
       id="path4215"
       style="fill:none;stroke:#ff6b62;stroke-width:4;stroke-linecap:butt;stroke-linejoin:miter;stroke-miterlimit:4;stroke-opacity:1;stroke-dasharray:none;stroke-dashoffset:0" />
    <path
       d="m 1737.1401,-18.399515 0,701.045865"
       id="path4217"
       style="fill:none;stroke:#ff6b62;stroke-width:4;stroke-linecap:butt;stroke-linejoin:miter;stroke-miterlimit:4;stroke-opacity:1;stroke-dasharray:none;stroke-dashoffset:0" />
    <path
       d="m 1780.7364,-18.399515 0,701.045865"
       id="path4219"
       style="fill:none;stroke:#ff6b62;stroke-width:4;stroke-linecap:butt;stroke-linejoin:miter;stroke-miterlimit:4;stroke-opacity:1;stroke-dasharray:none;stroke-dashoffset:0" />
  </g>
  <path
     d="m 1967.9083,197.25193 -34.2858,2.85714 -6.7857,-15.35714 -12.5,1.42857 -20.7143,-44.28571 -16.0714,-0.71429 -14.2857,30.71429 -12.8572,17.5 -17.1428,0 -10.3572,16.42857 -16.0714,0.35714 -7.8571,-8.21428 -6.0715,-1.78572 -15.7142,26.78572 -20,-38.92858 -24.6429,0.35715 -16.0714,-46.78572 -5.3572,11.07143 -27.1428,83.92857 -27.8572,290.35715 -2.8571,1.42857 -25,-288.21429 -15.7143,-40 -10.3571,0.35714 -1.0715,9.64286 -13.2143,0 -6.7857,-11.07143 -22.8571,0.71429 -20,-45.71429 -7.8572,1.42857 -5.3571,-5.35714 -18.5714,35 -21.7857,-2.85714 -4.2858,22.5 -9.6428,3.21428 -17.5,-1.78571 -1.7857,9.28571 -28.5715,2.14286 -11.7857,-0.35714 -9.2857,-20.71428 -10.7143,0 -7.1428,-7.85715 -10.3572,0 -8.2143,-25.71429 -3.9285,-10 -15.7143,0 -22.5,42.14286 -9.6429,0.71429 -7.5,7.5 -11.0714,19.64285 -13.2143,0 -1.4286,-6.07142 -6.0714,0 -2.1428,5 -6.7858,1.07142 -5,-16.42857 -21.4285,0 -5,-12.14285 -7.1429,2.85714 -7.5,-20.71429 -5,-3.92857 -4.6428,5.35714 -8.9286,2.14286 -14.6429,-46.78571 -10,3.57143 -4.2857,3.92857 -18.9286,42.49999 -8.2142,0 -5,17.14286 -6.7857,0.35715 0,5 -9.2858,0.71428 -2.5,5 -7.8571,0 -2.8571,5.71429 -25.3572,1.78571 -1.0714,8.57143 -18.5714,0 -4.2858,-11.07143 -8.2142,0.71429 -2.8572,-6.07143 -4.2857,0.35714 -5.3571,-10.35714 -30.7143,-1.42857 -7.8572,-13.21429 -8.21425,52.85715 -25.35714,327.5 -6.42857,0.71428 -24.28572,-301.78571 -21.07143,-47.67858 -13.21428,0 -1.78572,9.10715 -7.14285,0 -0.35715,7.14286 -13.57143,1.07142 -10.35714,-13.21428 -5,1.07143 -1.07143,-4.64286 -3.92857,0.35714 -2.5,-5.53571 -6.42857,0 -4.28571,-5.17858 -9.64286,0 -17.5,-42.32143 -7.14286,0 -12.5,35.53572 -16.42857,0.71429 -0.71429,5.71428 -4.64285,0.71429 -5.71429,10 -28.57143,-1.07143 -7.14285,9.28572 -14.64286,1.42857 -5.71429,-6.07143 -11.42857,-0.35714 -5,0 -2.85714,-5 -14.64286,-1.42858 -7.14286,-10.53571 -4.64285,0 -4.28572,-8.57142 -6.78571,0 -16.07143,-31.96429 -11.42857,0 -13.92857,30.35714 -15.71429,3.57143 -5,7.14285 -5.35714,7.14286 -7.85715,0 -7.14285,4.64286 -32.5,0.71428 -3.21429,5 -14.64286,-0.35714 -3.92857,-4.64286 -4.28571,-0.71428 -5.35714,-10 -5.71429,0 -4.28571,-4.64286 -18.57143,0 -14.28572,-42.85714 -20,0.71428 -18.57143,37.85715 -6.78571,0.35714 -5.35714,9.28571 -17.14286,0 -5.35714,9.28572 -17.5,0.35714 -1.42857,-3.92857 -6.07143,0 -4.64286,9.28571 -10.71429,0 -7.85714,-16.07142 -11.42857,0.71428 -8.92857,-17.5 -6.42857,0.71429 -5.35715,-6.78572 -7.14285,-10.35714 -22.85715,-45.89286 -6.07142,0 -7.5,18.39286 -13.92858,34.64286 -2.85714,8.92857 -15.53571,0 0,5.71428 -5.71429,0 0,5 -25,1.42858 0,5.17857 -16.96428,0 0,10.89285 -7.5,1.42858 -3.21429,-5.71429 -5.35714,-0.35714 -1.78572,5 -5.71428,3.92857 0,6.78571 -10.71429,-0.71428 -15,-22.14286 -9.64286,0 -8.92857,-17.85714 -6.07143,0.71428 -4.28571,-11.42857 -8.21429,-11.78571 -8.928567,42.14285 -26.071429,345 -3.928571,-1.07142 L 44.33683,227.60907 27.55112,193.6805 l -9.64286,-0.35714 -10.71428,16.78571 -15.35715,5.28414 0,0"
     id="path4099"
     style="fill:none;stroke:#000000;stroke-width:11;stroke-linejoin:round;stroke-miterlimit:4;stroke-opacity:1;stroke-dasharray:none" />
</svg>
